<?xml version="1.0" encoding="UTF-8" standalone="no"?><!DOCTYPE svg PUBLIC "-//W3C//DTD SVG 1.1//EN" "http://www.w3.org/Graphics/SVG/1.1/DTD/svg11.dtd"><svg width="100%" height="100%" viewBox="0 0 2292 905" version="1.1" xmlns="http://www.w3.org/2000/svg" xmlns:xlink="http://www.w3.org/1999/xlink" xml:space="preserve" xmlns:serif="http://www.serif.com/" style="fill-rule:evenodd;clip-rule:evenodd;stroke-linejoin:round;stroke-miterlimit:2;"><g><g><path d="M523.733,351.952c-18.667,-0 -33.334,-3.134 -44,-9.4c-10.667,-6.267 -16,-15.134 -16,-26.6c-0,-11.734 3.466,-22.6 10.4,-32.6c6.933,-10 15.933,-18.667 27,-26c11.066,-7.334 22.666,-13.067 34.8,-17.2c12.133,-4.134 23.4,-6.2 33.8,-6.2c5.333,-0 8,0.8 8,2.4c-0,2.4 -2.8,3.6 -8.4,3.6c-9.867,-0 -20.6,2.4 -32.2,7.2c-11.6,4.8 -21.934,11.466 -31,20c-7.2,6.4 -12.6,12.866 -16.2,19.4c-3.6,6.533 -5.4,12.6 -5.4,18.2c-0,8.266 3.866,15.133 11.6,20.6c7.733,5.466 19.333,8.2 34.8,8.2c9.066,-0 18.266,-0.734 27.6,-2.2c9.333,-1.467 17.8,-3.134 25.4,-5c7.6,-1.867 13.4,-3.334 17.4,-4.4c9.866,-3.2 19.8,-7.067 29.8,-11.6c10,-4.534 19,-9.667 27,-15.4c8,-5.734 13.866,-11.534 17.6,-17.4c2.133,-3.2 3.666,-6.267 4.6,-9.2c0.933,-2.934 1.4,-5.734 1.4,-8.4c-0,-7.467 -3.334,-13.8 -10,-19c-6.667,-5.2 -15.2,-9.934 -25.6,-14.2c-10.4,-4.267 -21.467,-8.334 -33.2,-12.2c-11.734,-3.867 -22.8,-7.934 -33.2,-12.2c-10.4,-4.267 -18.934,-9.134 -25.6,-14.6c-6.667,-5.467 -10,-12.067 -10,-19.8c-0,-8.8 3.266,-16.734 9.8,-23.8c6.533,-7.067 14.933,-13.334 25.2,-18.8c10.266,-5.467 21.266,-10 33,-13.6c11.733,-3.6 22.933,-6.334 33.6,-8.2c10.666,-1.867 19.466,-2.8 26.4,-2.8c29.333,-0 44,7.333 44,22c-0,5.866 -2.4,12.666 -7.2,20.4c-2.134,4 -5.2,7.8 -9.2,11.4c-4,3.6 -7.067,5.4 -9.2,5.4c-1.6,-0 -2.4,-0.934 -2.4,-2.8c-0,-0.8 1.466,-2.467 4.4,-5c2.933,-2.534 5.866,-5.667 8.8,-9.4c2.933,-3.734 4.4,-7.467 4.4,-11.2c-0,-5.6 -3.134,-9.867 -9.4,-12.8c-6.267,-2.934 -14.467,-4.4 -24.6,-4.4c-4.8,-0 -11.734,0.733 -20.8,2.2c-9.067,1.466 -18.934,3.8 -29.6,7c-10.667,3.2 -20.934,7.466 -30.8,12.8c-18.4,10.133 -27.6,18.8 -27.6,26c-0,5.333 5.2,10.4 15.6,15.2c7.733,3.466 16.666,7.066 26.8,10.8c10.133,3.733 20.4,7.733 30.8,12c10.4,4.266 20.066,9.066 29,14.4c8.933,5.333 16.133,11.266 21.6,17.8c5.466,6.533 8.2,13.933 8.2,22.2c-0,11.2 -6.134,22.666 -18.4,34.4c-9.6,9.066 -20.734,17.466 -33.4,25.2c-12.667,7.733 -26,14.4 -40,20c-14,5.6 -27.8,9.933 -41.4,13c-13.6,3.066 -26.267,4.6 -38,4.6Z" style="fill-rule:nonzero;"/><path d="M808.533,351.552c-5.334,1.866 -10.8,2.8 -16.4,2.8c-7.2,-0 -14.334,-1.467 -21.4,-4.4c-7.067,-2.934 -14.467,-6.8 -22.2,-11.6c-4.534,-2.667 -9.734,-5.067 -15.6,-7.2c-5.067,3.466 -9.934,6.466 -14.6,9c-4.667,2.533 -8.867,3.8 -12.6,3.8c-2.134,-0 -3.6,-0.267 -4.4,-0.8c-1.6,-0.8 -2.4,-2.8 -2.4,-6c-0,-4 2,-8.667 6,-14c4,-5.334 10.8,-8 20.4,-8c5.066,-0 10.4,0.8 16,2.4c6.933,-5.334 11.066,-8.934 12.4,-10.8c10.933,-9.334 21.933,-19.267 33,-29.8c11.066,-10.534 20.733,-19.8 29,-27.8c-6.667,-2.134 -12.667,-3.867 -18,-5.2c-5.334,-1.334 -10.8,-2.4 -16.4,-3.2c-1.334,-0.267 -2.667,-0.467 -4,-0.6c-1.334,-0.134 -2.667,-0.2 -4,-0.2c-6.134,-0 -11.334,1.066 -15.6,3.2c-4.267,2.133 -8.267,4.933 -12,8.4c-4.534,4 -8.934,8.466 -13.2,13.4c-4.267,4.933 -8.267,9.8 -12,14.6c-0.8,1.066 -2,2.6 -3.6,4.6c-1.6,2 -2.934,2.466 -4,1.4c-1.067,-1.067 -1.6,-2.134 -1.6,-3.2c-0,-1.067 0.4,-2.134 1.2,-3.2c5.866,-8 11.266,-15.4 16.2,-22.2c4.933,-6.8 8.6,-11.667 11,-14.6c5.066,-7.467 10.133,-12.467 15.2,-15c5.066,-2.534 10.133,-3.8 15.2,-3.8c4.533,-0 9.2,0.6 14,1.8c4.8,1.2 9.733,2.466 14.8,3.8c4.8,1.066 9.933,2.2 15.4,3.4c5.466,1.2 10.6,2.333 15.4,3.4c2.133,-1.867 5.933,-4.267 11.4,-7.2c5.466,-2.934 10.066,-4.4 13.8,-4.4c3.733,-0 5.6,1.866 5.6,5.6c-0,4.533 -2.067,8.6 -6.2,12.2c-4.134,3.6 -8.934,6.266 -14.4,8c-5.467,1.733 -10.067,2.2 -13.8,1.4c-9.067,7.733 -20,17 -32.8,27.8c-12.8,10.8 -24.667,21.133 -35.6,31c-1.6,1.066 -3.267,2.4 -5,4c-1.734,1.6 -3.667,3.333 -5.8,5.2c2.133,1.066 4.2,2 6.2,2.8c2,0.8 3.933,1.733 5.8,2.8c7.466,4.533 14.6,8.4 21.4,11.6c6.8,3.2 13.533,4.8 20.2,4.8c6.4,-0 12.666,-1.734 18.8,-5.2c5.6,-3.2 12.533,-8.334 20.8,-15.4c8.266,-7.067 16.533,-14.867 24.8,-23.4c8.266,-8.534 14.933,-16.267 20,-23.2c0.8,-1.067 2.133,-1.6 4,-1.6c1.066,-0 1.933,0.2 2.6,0.6c0.666,0.4 0.733,1.133 0.2,2.2c-2.134,3.733 -5.667,8.533 -10.6,14.4c-4.934,5.866 -10.6,12.066 -17,18.6c-6.4,6.533 -12.8,12.666 -19.2,18.4c-6.4,5.733 -12.134,10.466 -17.2,14.2c-4.8,3.466 -8.667,5.933 -11.6,7.4c-2.934,1.466 -5.467,2.466 -7.6,3Z" style="fill-rule:nonzero;"/><path d="M926.533,342.752c-4.8,0.8 -9.6,1.2 -14.4,1.2c-11.734,-0 -21.467,-2.8 -29.2,-8.4c-7.734,-5.6 -11.6,-13.734 -11.6,-24.4c-0,-6.4 1.866,-14.134 5.6,-23.2c2.666,-6.134 7.6,-13.2 14.8,-21.2c7.2,-8 15.6,-15.8 25.2,-23.4c9.6,-7.6 19.333,-13.867 29.2,-18.8c9.866,-4.934 18.8,-7.4 26.8,-7.4c2.933,-0 5.6,0.4 8,1.2c2.933,1.066 5.466,2.533 7.6,4.4c2.133,1.866 3.2,4.666 3.2,8.4l-0,2.4c-0,0.8 -0.267,1.733 -0.8,2.8c-0,0.8 -0.6,2.533 -1.8,5.2c-1.2,2.666 -2.534,5 -4,7c-1.467,2 -2.734,2.466 -3.8,1.4c-1.067,-0.8 -1.6,-1.867 -1.6,-3.2c-0,-1.334 0.333,-2.867 1,-4.6c0.666,-1.734 1,-3.267 1,-4.6c-0,-1.867 -0.467,-3.667 -1.4,-5.4c-0.934,-1.734 -2.467,-2.6 -4.6,-2.6c-5.067,-0 -11.6,2.266 -19.6,6.8c-8,4.533 -16.2,10.6 -24.6,18.2c-8.4,7.6 -15.934,15.933 -22.6,25c-6.667,9.066 -11.334,18.133 -14,27.2c-0.8,2.133 -1.334,4.2 -1.6,6.2c-0.267,2 -0.4,3.933 -0.4,5.8c-0,5.866 1.933,10.066 5.8,12.6c3.866,2.533 8.6,3.8 14.2,3.8c6.133,-0 12.4,-0.934 18.8,-2.8c18.133,-5.334 32.866,-12.667 44.2,-22c11.333,-9.334 22.733,-21.334 34.2,-36c1.066,-1.334 2,-1.867 2.8,-1.6c0.8,0.266 1.466,0.4 2,0.4c0.8,0.266 1.2,1.066 1.2,2.4c-0,0.533 -0.134,1.2 -0.4,2c-0.267,0.8 -0.534,1.466 -0.8,2c-11.467,15.466 -24.134,29 -38,40.6c-13.867,11.6 -30.667,19.133 -50.4,22.6Z" style="fill-rule:nonzero;"/><path d="M1101.73,351.552c-5.334,1.866 -10.8,2.8 -16.4,2.8c-7.2,-0 -14.334,-1.467 -21.4,-4.4c-7.067,-2.934 -14.467,-6.8 -22.2,-11.6c-4.534,-2.667 -9.734,-5.067 -15.6,-7.2c-5.067,3.466 -9.934,6.466 -14.6,9c-4.667,2.533 -8.867,3.8 -12.6,3.8c-2.134,-0 -3.6,-0.267 -4.4,-0.8c-1.6,-0.8 -2.4,-2.8 -2.4,-6c-0,-4 2,-8.667 6,-14c4,-5.334 10.8,-8 20.4,-8c5.066,-0 10.4,0.8 16,2.4c6.933,-5.334 11.066,-8.934 12.4,-10.8c10.933,-9.334 21.933,-19.267 33,-29.8c11.066,-10.534 20.733,-19.8 29,-27.8c-6.667,-2.134 -12.667,-3.867 -18,-5.2c-5.334,-1.334 -10.8,-2.4 -16.4,-3.2c-1.334,-0.267 -2.667,-0.467 -4,-0.6c-1.334,-0.134 -2.667,-0.2 -4,-0.2c-6.134,-0 -11.334,1.066 -15.6,3.2c-4.267,2.133 -8.267,4.933 -12,8.4c-4.534,4 -8.934,8.466 -13.2,13.4c-4.267,4.933 -8.267,9.8 -12,14.6c-0.8,1.066 -2,2.6 -3.6,4.6c-1.6,2 -2.934,2.466 -4,1.4c-1.067,-1.067 -1.6,-2.134 -1.6,-3.2c-0,-1.067 0.4,-2.134 1.2,-3.2c5.866,-8 11.266,-15.4 16.2,-22.2c4.933,-6.8 8.6,-11.667 11,-14.6c5.066,-7.467 10.133,-12.467 15.2,-15c5.066,-2.534 10.133,-3.8 15.2,-3.8c4.533,-0 9.2,0.6 14,1.8c4.8,1.2 9.733,2.466 14.8,3.8c4.8,1.066 9.933,2.2 15.4,3.4c5.466,1.2 10.6,2.333 15.4,3.4c2.133,-1.867 5.933,-4.267 11.4,-7.2c5.466,-2.934 10.066,-4.4 13.8,-4.4c3.733,-0 5.6,1.866 5.6,5.6c-0,4.533 -2.067,8.6 -6.2,12.2c-4.134,3.6 -8.934,6.266 -14.4,8c-5.467,1.733 -10.067,2.2 -13.8,1.4c-9.067,7.733 -20,17 -32.8,27.8c-12.8,10.8 -24.667,21.133 -35.6,31c-1.6,1.066 -3.267,2.4 -5,4c-1.734,1.6 -3.667,3.333 -5.8,5.2c2.133,1.066 4.2,2 6.2,2.8c2,0.8 3.933,1.733 5.8,2.8c7.466,4.533 14.6,8.4 21.4,11.6c6.8,3.2 13.533,4.8 20.2,4.8c6.4,-0 12.666,-1.734 18.8,-5.2c5.6,-3.2 12.533,-8.334 20.8,-15.4c8.266,-7.067 16.533,-14.867 24.8,-23.4c8.266,-8.534 14.933,-16.267 20,-23.2c0.8,-1.067 2.133,-1.6 4,-1.6c1.066,-0 1.933,0.2 2.6,0.6c0.666,0.4 0.733,1.133 0.2,2.2c-2.134,3.733 -5.667,8.533 -10.6,14.4c-4.934,5.866 -10.6,12.066 -17,18.6c-6.4,6.533 -12.8,12.666 -19.2,18.4c-6.4,5.733 -12.134,10.466 -17.2,14.2c-4.8,3.466 -8.667,5.933 -11.6,7.4c-2.934,1.466 -5.467,2.466 -7.6,3Z" style="fill-rule:nonzero;"/><path d="M1155.73,485.152c-3.2,-0.8 -6,-1.6 -8.4,-2.4c-5.067,-2.667 -8.667,-5.667 -10.8,-9c-2.134,-3.334 -3.2,-6.867 -3.2,-10.6c-0,-6.134 2.066,-12.734 6.2,-19.8c4.133,-7.067 9.533,-14.334 16.2,-21.8c6.666,-8 15.133,-16.134 25.4,-24.4c10.266,-8.267 21,-16.2 32.2,-23.8c11.2,-7.6 21.066,-14.2 29.6,-19.8c4.533,-9.334 9.266,-19.334 14.2,-30c4.933,-10.667 9.666,-21 14.2,-31c4.533,-10 8.466,-19.134 11.8,-27.4c3.333,-8.267 5.8,-14.667 7.4,-19.2c-4.267,5.066 -9.2,11.4 -14.8,19c-5.6,7.6 -11.734,15.6 -18.4,24c-6.667,8.4 -13.534,16.333 -20.6,23.8c-7.067,7.466 -14.334,13.533 -21.8,18.2c-7.467,4.666 -14.8,7 -22,7c-10.667,-0 -18.067,-2.734 -22.2,-8.2c-4.134,-5.467 -6.2,-11.934 -6.2,-19.4c-0,-5.334 0.733,-10.667 2.2,-16c1.466,-5.334 3.4,-10.267 5.8,-14.8c1.6,-3.2 4.133,-7.467 7.6,-12.8c3.466,-5.334 7.466,-10.8 12,-16.4c4.533,-5.6 9.133,-10.267 13.8,-14c4.666,-3.734 9.133,-5.6 13.4,-5.6c5.066,-0 8.933,1.8 11.6,5.4c2.666,3.6 2.933,6.066 0.8,7.4c-4.267,2.933 -9.534,7.4 -15.8,13.4c-6.267,6 -12.467,12.866 -18.6,20.6c-1.6,2.133 -3.534,5.466 -5.8,10c-2.267,4.533 -4.334,9.4 -6.2,14.6c-1.867,5.2 -2.8,9.933 -2.8,14.2c-0,1.866 0.266,3.666 0.8,5.4c0.533,1.733 1.466,3 2.8,3.8c2.133,1.6 4.533,2.4 7.2,2.4c3.733,-0 7.933,-1.2 12.6,-3.6c4.666,-2.4 9.133,-5.467 13.4,-9.2c14.933,-14.4 28.266,-29.467 40,-45.2c11.733,-15.734 24.133,-31.334 37.2,-46.8c0.8,-2.667 3.066,-4 6.8,-4c4.266,-0 8.733,1.266 13.4,3.8c4.666,2.533 6.6,4.6 5.8,6.2c-2.4,5.333 -5.534,12.4 -9.4,21.2c-3.867,8.8 -8.067,18.266 -12.6,28.4c-4.534,10.133 -9.067,20.2 -13.6,30.2c-4.534,10 -8.667,19 -12.4,27c3.2,-1.6 8.933,-5.6 17.2,-12c8.266,-6.4 17.333,-14.2 27.2,-23.4c9.866,-9.2 18.8,-18.734 26.8,-28.6c1.6,-1.6 2.8,-2.4 3.6,-2.4c1.6,-0 2.4,1.066 2.4,3.2c-0,1.866 -0.8,4 -2.4,6.4c-4,5.333 -9.534,11.6 -16.6,18.8c-7.067,7.2 -14.667,14.466 -22.8,21.8c-8.134,7.333 -16.067,14 -23.8,20c-7.734,6 -14.4,10.6 -20,13.8c-8.267,17.6 -16.267,34.2 -24,49.8c-7.734,15.6 -14.8,28.2 -21.2,37.8c-4.267,6.666 -9.467,13.466 -15.6,20.4c-6.134,6.933 -12.8,12.733 -20,17.4c-7.2,4.666 -14.8,7 -22.8,7c-1.067,-0 -2.134,-0.067 -3.2,-0.2c-1.067,-0.134 -2.267,-0.334 -3.6,-0.6Zm1.2,-8.8c2.133,-0 4.733,-0.667 7.8,-2c3.066,-1.334 6.333,-3.467 9.8,-6.4c10.133,-8.267 18.666,-17.934 25.6,-29c6.933,-11.067 13.133,-22.734 18.6,-35c5.466,-12.267 11,-24 16.6,-35.2c-10.4,7.733 -22.134,16.866 -35.2,27.4c-13.067,10.533 -24.934,21 -35.6,31.4c-6.4,6.4 -11.067,12.733 -14,19c-2.934,6.266 -4.4,11.8 -4.4,16.6c-0,8.8 3.6,13.2 10.8,13.2Z" style="fill-rule:nonzero;"/><path d="M1271.33,475.152c-3.2,-0 -4.8,-1.334 -4.8,-4c-0,-1.067 0.4,-2.534 1.2,-4.4c3.2,-6.934 7.733,-17.267 13.6,-31c5.866,-13.734 12.333,-29.467 19.4,-47.2c7.066,-17.734 14.2,-35.934 21.4,-54.6c6.4,-16.534 12.6,-32.667 18.6,-48.4c6,-15.734 11,-29.934 15,-42.6c4,-12.667 6,-22.467 6,-29.4c-0,-2.134 1.466,-3.4 4.4,-3.8c2.933,-0.4 5.733,-0.6 8.4,-0.6c8.8,-0 13.2,2.933 13.2,8.8c-0,4.8 -2.667,11.066 -8,18.8c-4.8,7.733 -8.934,15.666 -12.4,23.8c-3.467,8.133 -6.934,16.466 -10.4,25c6.4,-8.534 12.4,-16.934 18,-25.2c5.6,-8.267 12.133,-15.334 19.6,-21.2c5.866,-4.534 11.666,-8.2 17.4,-11c5.733,-2.8 11.933,-4.2 18.6,-4.2c6.933,-0 13.866,1.666 20.8,5c6.933,3.333 10.933,8.6 12,15.8c0.266,0.8 0.4,1.666 0.4,2.6l-0,2.6c-0,9.333 -2.734,18.466 -8.2,27.4c-5.467,8.933 -11.934,16.866 -19.4,23.8c-7.467,6.933 -14.4,12.533 -20.8,16.8c-5.334,3.2 -11.8,6.666 -19.4,10.4c-7.6,3.733 -15.6,6.933 -24,9.6c-8.4,2.666 -16.467,4 -24.2,4c-4.8,-0 -8.8,-0.534 -12,-1.6c-3.467,8 -7.467,18.333 -12,31c-4.534,12.666 -8.8,25.133 -12.8,37.4c-1.867,5.333 -2.534,9.666 -2,13c0.533,3.333 -0.134,7.533 -2,12.6c-1.6,5.333 -3.334,10.466 -5.2,15.4c-1.867,4.933 -4,9.666 -6.4,14.2c-0.534,1.066 -2.2,2.533 -5,4.4c-2.8,1.866 -6,3.466 -9.6,4.8c-3.6,1.333 -6.734,2 -9.4,2Zm67.6,-141.2c8.533,-0 17.466,-2 26.8,-6c9.333,-4 18.533,-9.334 27.6,-16c9.066,-6.667 17.266,-13.934 24.6,-21.8c7.333,-7.867 13.266,-15.534 17.8,-23c5.333,-8.534 8,-16.4 8,-23.6c-0,-8.267 -3.6,-12.4 -10.8,-12.4c-1.867,-0 -4.134,0.333 -6.8,1c-2.667,0.666 -5.734,1.933 -9.2,3.8c-14.134,7.466 -25.734,16.2 -34.8,26.2c-9.067,10 -16.8,21 -23.2,33c-6.4,12 -13.067,24.933 -20,38.8Z" style="fill-rule:nonzero;"/><path d="M1505.73,342.352c-4.8,-0 -9.134,-1.067 -13,-3.2c-3.867,-2.134 -6.734,-6.134 -8.6,-12c-0.267,-0.8 -0.467,-1.6 -0.6,-2.4c-0.134,-0.8 -0.2,-1.734 -0.2,-2.8c-0,-5.334 1.2,-12 3.6,-20c2.4,-8 5.333,-15.734 8.8,-23.2c-1.6,2.133 -3.467,4.733 -5.6,7.8c-2.134,3.066 -5.2,7 -9.2,11.8c-1.067,1.066 -2.267,1.6 -3.6,1.6c-1.867,-0 -2.8,-1.067 -2.8,-3.2c-0,-1.6 0.533,-2.934 1.6,-4c6.933,-8.8 13.133,-16.667 18.6,-23.6c5.466,-6.934 9.533,-12.8 12.2,-17.6c-0,-0.534 0.8,-2.2 2.4,-5c1.6,-2.8 3.733,-6.734 6.4,-11.8c-2.134,0.266 -3.934,0.466 -5.4,0.6c-1.467,0.133 -2.734,0.2 -3.8,0.2c-1.867,-0 -3.467,-0.8 -4.8,-2.4c-1.334,-1.6 -1.467,-3.6 -0.4,-6c1.333,-3.734 4.266,-5.867 8.8,-6.4c4.533,-0.534 8.533,-0.934 12,-1.2c0.266,-0.534 0.8,-0.8 1.6,-0.8c3.2,-5.867 6.266,-11.6 9.2,-17.2c2.933,-5.6 5.4,-10.267 7.4,-14c2,-3.734 3,-5.734 3,-6c5.333,-8.534 8.8,-14.2 10.4,-17c1.6,-2.8 3.733,-4.467 6.4,-5c2.933,-0.267 6.066,-0.134 9.4,0.4c3.333,0.533 5.533,1.733 6.6,3.6c0.8,1.066 1.2,2.4 1.2,4c-0,2.4 -0.534,4.733 -1.6,7c-1.067,2.266 -2.134,4.066 -3.2,5.4c-1.067,1.866 -2.467,3.133 -4.2,3.8c-1.734,0.666 -3.267,2.333 -4.6,5c-2.667,5.066 -5.6,10.533 -8.8,16.4c-3.2,5.866 -6.534,11.466 -10,16.8l4.8,-0.4c6.4,-0.534 12.466,-1.2 18.2,-2c5.733,-0.8 12.333,-1.067 19.8,-0.8c1.333,-0 2.733,0.2 4.2,0.6c1.466,0.4 2.2,1 2.2,1.8c-0,1.066 -3.467,2.533 -10.4,4.4c-2.667,1.066 -8.467,2.2 -17.4,3.4c-8.934,1.2 -18.067,2.333 -27.4,3.4c-2.667,5.066 -5.067,9.266 -7.2,12.6c-2.134,3.333 -3.6,5.8 -4.4,7.4c-5.867,12.266 -11.134,23.4 -15.8,33.4c-4.667,10 -7.267,18.2 -7.8,24.6c-0.267,1.066 -0.4,2.066 -0.4,3l-0,3c-0,10.666 3.466,16 10.4,16c4.266,-0 9.733,-2.334 16.4,-7c6.666,-4.667 13.466,-10.4 20.4,-17.2c6.933,-6.8 13.266,-13.334 19,-19.6c5.733,-6.267 9.666,-11 11.8,-14.2c0.8,-0.8 1.6,-1.2 2.4,-1.2c1.066,-0 1.933,0.4 2.6,1.2c0.666,0.8 0.733,1.866 0.2,3.2c-2.4,4.533 -6.467,10.2 -12.2,17c-5.734,6.8 -12.134,13.6 -19.2,20.4c-7.067,6.8 -13.934,12.6 -20.6,17.4c-3.467,2.666 -7.8,5 -13,7c-5.2,2 -10.467,3 -15.8,3Z" style="fill-rule:nonzero;"/><path d="M1702.93,385.552c-11.467,-0 -21.667,-3.6 -30.6,-10.8c-8.934,-7.2 -13.4,-18.8 -13.4,-34.8c-0,-9.067 1.4,-18.467 4.2,-28.2c2.8,-9.734 6.066,-19 9.8,-27.8c0.266,-0.534 0.4,-1.334 0.4,-2.4c-0,-0.8 -0.4,-1.2 -1.2,-1.2c-0.534,-0 -1.334,0.533 -2.4,1.6c-2.934,2.933 -7.067,7.4 -12.4,13.4c-5.334,6 -11.334,12.266 -18,18.8c-6.667,6.533 -13.667,12.133 -21,16.8c-7.334,4.666 -14.6,7 -21.8,7c-4.8,-0 -9.667,-1.4 -14.6,-4.2c-4.934,-2.8 -9,-6.467 -12.2,-11c-3.2,-4.534 -4.8,-9.467 -4.8,-14.8c-0,-7.2 2.466,-14.667 7.4,-22.4c4.933,-7.734 11.333,-15.267 19.2,-22.6c7.866,-7.334 16.266,-14 25.2,-20c8.933,-6 17.466,-11.067 25.6,-15.2c8.133,-4.134 14.866,-6.867 20.2,-8.2c2.4,-0.8 5.133,-1.334 8.2,-1.6c3.066,-0.267 6.333,-0.4 9.8,-0.4c6.4,-0 12.8,1.333 19.2,4c6.4,2.666 9.6,6.666 9.6,12c-0,1.6 -0.4,2.4 -1.2,2.4c-1.6,-0 -4.467,-1.334 -8.6,-4c-4.134,-2.667 -8.334,-4 -12.6,-4c-10.667,-0 -22.4,3.466 -35.2,10.4c-12.8,6.933 -24.267,15.066 -34.4,24.4c-3.2,2.933 -7.534,7.666 -13,14.2c-5.467,6.533 -10.467,13.533 -15,21c-4.534,7.466 -6.8,14.4 -6.8,20.8c-0,2.666 0.6,5.4 1.8,8.2c1.2,2.8 3.266,4.2 6.2,4.2c5.866,-0 12.533,-2.667 20,-8c7.466,-5.334 15.133,-11.8 23,-19.4c7.866,-7.6 15,-14.734 21.4,-21.4c1.333,-1.334 3.933,-4.067 7.8,-8.2c3.866,-4.134 8.066,-8.6 12.6,-13.4c4.533,-4.8 8.6,-8.934 12.2,-12.4c3.6,-3.467 5.933,-5.2 7,-5.2c1.866,-0 5,0.6 9.4,1.8c4.4,1.2 6.6,3 6.6,5.4c-0,1.066 -0.134,1.733 -0.4,2c-4.267,6.4 -8.734,14.866 -13.4,25.4c-4.667,10.533 -8.6,21.4 -11.8,32.6c-3.2,11.2 -4.8,21.2 -4.8,30c-0,13.866 3.133,23.666 9.4,29.4c6.266,5.733 13.133,8.6 20.6,8.6c11.733,-0 23.2,-2.934 34.4,-8.8c11.2,-5.867 21.733,-13.534 31.6,-23c9.866,-9.467 18.533,-19.8 26,-31c7.466,-11.2 13.333,-22.267 17.6,-33.2c4.266,-10.934 6.4,-20.534 6.4,-28.8c-0,-7.734 -1.734,-14.267 -5.2,-19.6c-3.467,-5.334 -7,-9.534 -10.6,-12.6c-3.6,-3.067 -5.4,-4.734 -5.4,-5c-0,-1.867 0.933,-2.8 2.8,-2.8c6.4,-0 11.666,2.733 15.8,8.2c4.133,5.466 7.2,11.733 9.2,18.8c2,7.066 3,13.133 3,18.2c-0,11.466 -2.667,23.133 -8,35c-5.334,11.866 -12.467,23.266 -21.4,34.2c-8.934,10.933 -19.134,20.733 -30.6,29.4c-11.467,8.666 -23.467,15.533 -36,20.6c-12.534,5.066 -24.8,7.6 -36.8,7.6Z" style="fill-rule:nonzero;"/><path d="M631.733,653.318c-0.534,0 -2.067,-0.266 -4.6,-0.8c-2.534,-0.533 -4.934,-1.2 -7.2,-2c-2.267,-0.8 -3.534,-1.733 -3.8,-2.8c-0.534,-5.066 0.8,-12.266 4,-21.6c3.2,-9.333 7.533,-19.8 13,-31.4c5.466,-11.6 11.133,-23 17,-34.2c-1.067,0 -2.2,-0.066 -3.4,-0.2c-1.2,-0.133 -2.467,-0.2 -3.8,-0.2c-3.2,-0.533 -4.8,-2 -4.8,-4.4c-0,-1.333 1.466,-2 4.4,-2c2.133,0 4,0.067 5.6,0.2c1.6,0.134 3.333,0.2 5.2,0.2c5.333,-10.133 10.266,-19.266 14.8,-27.4c4.533,-8.133 7.733,-14.333 9.6,-18.6c1.6,-2.933 2.666,-5.4 3.2,-7.4c0.533,-2 0.8,-3.533 0.8,-4.6c-0,-1.6 -0.267,-2.933 -0.8,-4c0.533,-3.2 2.466,-7.466 5.8,-12.8c3.333,-5.333 7.533,-10.666 12.6,-16c5.066,-5.333 10.533,-9.8 16.4,-13.4c5.866,-3.6 11.333,-5.4 16.4,-5.4c1.6,0 4.066,0.467 7.4,1.4c3.333,0.934 6.6,2.334 9.8,4.2c3.2,1.867 5.2,4.534 6,8c0.266,0.534 0.4,1.334 0.4,2.4c-0,0.8 -0.4,1.2 -1.2,1.2c-0.534,0 -1.267,-0.2 -2.2,-0.6c-0.934,-0.4 -1.667,-0.6 -2.2,-0.6c-5.867,0 -12.2,2.734 -19,8.2c-6.8,5.467 -13.8,12.734 -21,21.8c-7.2,9.067 -14.334,19.134 -21.4,30.2c-7.067,11.067 -13.8,22.2 -20.2,33.4c13.333,-0.533 27.466,-2.2 42.4,-5c14.933,-2.8 29.733,-6.6 44.4,-11.4c14.666,-4.8 28.266,-10.666 40.8,-17.6c12.533,-6.933 23.066,-14.8 31.6,-23.6c9.333,-9.866 14,-20 14,-30.4c-0,-7.733 -2.934,-14.933 -8.8,-21.6c-5.867,-6.666 -15.067,-11.733 -27.6,-15.2c-7.467,-2.133 -15.934,-3.733 -25.4,-4.8c-9.467,-1.066 -19.667,-1.6 -30.6,-1.6c-17.067,0 -34.6,1.467 -52.6,4.4c-18,2.934 -34.867,7.4 -50.6,13.4c-15.734,6 -28.934,13.534 -39.6,22.6c-10.667,9.067 -17.067,19.867 -19.2,32.4c-0.8,6.4 0.4,11.467 3.6,15.2c3.2,3.734 7.133,6.6 11.8,8.6c4.666,2 8.333,3.8 11,5.4c1.866,1.6 2.8,2.934 2.8,4c-0,1.867 -1.734,2.534 -5.2,2c-3.734,-0.8 -8.334,-2.666 -13.8,-5.6c-5.467,-2.933 -10.267,-7 -14.4,-12.2c-4.134,-5.2 -6.2,-11.266 -6.2,-18.2c-0,-1.066 0.066,-2.133 0.2,-3.2c0.133,-1.066 0.333,-2.133 0.6,-3.2c-0,-0.266 -0.067,-1.133 -0.2,-2.6c-0.134,-1.466 -0.2,-2.733 -0.2,-3.8c1.6,-8.266 5.666,-16.066 12.2,-23.4c6.533,-7.333 14,-13.866 22.4,-19.6c8.4,-5.733 16.2,-10.333 23.4,-13.8c12.533,-6.133 27.6,-11 45.2,-14.6c17.6,-3.6 36,-5.4 55.2,-5.4c11.733,0 23.4,0.8 35,2.4c11.6,1.6 22.866,4.134 33.8,7.6c15.2,5.067 27,12.867 35.4,23.4c8.4,10.534 12.2,21.534 11.4,33c-0.8,10.934 -4.6,20.8 -11.4,29.6c-6.8,8.8 -15.467,16.467 -26,23c-10.534,6.534 -22.134,12.134 -34.8,16.8c-12.667,4.667 -25.4,8.467 -38.2,11.4c-12.267,2.667 -25.267,4.667 -39,6c-13.734,1.334 -26.067,2.134 -37,2.4c-6.4,11.467 -12.067,22.267 -17,32.4c-4.934,10.134 -8.6,18.267 -11,24.4c-2.134,5.867 -3.2,10 -3.2,12.4c-0,3.734 1.466,5.6 4.4,5.6c3.733,0 7.733,-2.533 12,-7.6c2.933,-3.466 5.666,-6.733 8.2,-9.8c2.533,-3.066 4.733,-4.333 6.6,-3.8c0.266,0.267 0.4,0.667 0.4,1.2c-0,1.334 -0.934,3.134 -2.8,5.4c-1.867,2.267 -2.934,3.534 -3.2,3.8c-1.867,2.667 -4.334,6.267 -7.4,10.8c-3.067,4.534 -6.267,8.6 -9.6,12.2c-3.334,3.6 -6.867,5.4 -10.6,5.4Z" style="fill-rule:nonzero;"/><path d="M881.333,647.318c-4.534,0 -8.534,-1 -12,-3c-3.467,-2 -5.867,-5.8 -7.2,-11.4c-0.8,-2.933 -1.2,-5.866 -1.2,-8.8c-0,-8 2.066,-15.8 6.2,-23.4c4.133,-7.6 9,-14.666 14.6,-21.2c5.6,-6.533 10.4,-12.066 14.4,-16.6c2.133,-2.133 4.6,-4.933 7.4,-8.4c2.8,-3.466 4.2,-6.933 4.2,-10.4c-0,-2.133 -1.067,-4.2 -3.2,-6.2c-2.134,-2 -6,-3.4 -11.6,-4.2c-3.2,-0.533 -6.2,-1 -9,-1.4c-2.8,-0.4 -5.667,-0.6 -8.6,-0.6c-7.467,10.134 -14.734,20.334 -21.8,30.6c-7.067,10.267 -14.6,20.334 -22.6,30.2c-1.867,1.867 -3.467,2.8 -4.8,2.8c-1.6,0 -2.4,-0.8 -2.4,-2.4c-0,-1.6 0.8,-3.2 2.4,-4.8c14.4,-17.6 26.8,-36.4 37.2,-56.4c-1.334,0 -3.334,-0.066 -6,-0.2c-2.667,-0.133 -4.8,-0.333 -6.4,-0.6c-1.867,-0.533 -3.334,-1.333 -4.4,-2.4c-1.067,-1.066 -1.6,-2.133 -1.6,-3.2c-0,-1.6 0.666,-2.533 2,-2.8c3.466,-1.066 7.2,-2.666 11.2,-4.8c4,-2.133 7.733,-4.933 11.2,-8.4c3.733,-3.733 7.2,-7.666 10.4,-11.8c3.2,-4.133 5.733,-7.266 7.6,-9.4c1.866,-1.333 3.866,-2 6,-2c1.333,0 2.6,0.4 3.8,1.2c1.2,0.8 1.8,2 1.8,3.6c-0,1.867 -0.8,4.267 -2.4,7.2c-2.4,3.734 -5,7.867 -7.8,12.4c-2.8,4.534 -5.4,8.667 -7.8,12.4c4.8,0.267 9.6,0.534 14.4,0.8c4.8,0.267 9.733,0.4 14.8,0.4c2.666,0 5.266,-0.066 7.8,-0.2c2.533,-0.133 5.133,-0.2 7.8,-0.2c8,0 12,2 12,6c-0,2.667 -1.4,5.934 -4.2,9.8c-2.8,3.867 -6.2,8.067 -10.2,12.6c-9.067,10.4 -16.8,21.334 -23.2,32.8c-6.4,11.467 -10.667,20.267 -12.8,26.4c-2.134,6.4 -3.2,11.2 -3.2,14.4c-0,6.4 2.533,9.6 7.6,9.6c4.533,0 10.066,-2.266 16.6,-6.8c6.533,-4.533 13.266,-10.066 20.2,-16.6c6.933,-6.533 13.2,-12.933 18.8,-19.2c5.6,-6.266 9.6,-11 12,-14.2c0.533,-0.8 1.333,-1.2 2.4,-1.2c1.066,0 2,0.467 2.8,1.4c0.8,0.934 0.8,2.067 -0,3.4c-2.934,4.534 -7.2,10.2 -12.8,17c-5.6,6.8 -11.867,13.534 -18.8,20.2c-6.934,6.667 -13.734,12.4 -20.4,17.2c-3.467,2.667 -8.2,5.134 -14.2,7.4c-6,2.267 -11.667,3.4 -17,3.4Z" style="fill-rule:nonzero;"/><path d="M1051.73,655.718c-5.334,1.867 -10.8,2.8 -16.4,2.8c-7.2,0 -14.334,-1.466 -21.4,-4.4c-7.067,-2.933 -14.467,-6.8 -22.2,-11.6c-4.534,-2.666 -9.734,-5.066 -15.6,-7.2c-5.067,3.467 -9.934,6.467 -14.6,9c-4.667,2.534 -8.867,3.8 -12.6,3.8c-2.134,0 -3.6,-0.266 -4.4,-0.8c-1.6,-0.8 -2.4,-2.8 -2.4,-6c-0,-4 2,-8.666 6,-14c4,-5.333 10.8,-8 20.4,-8c5.066,0 10.4,0.8 16,2.4c6.933,-5.333 11.066,-8.933 12.4,-10.8c10.933,-9.333 21.933,-19.266 33,-29.8c11.066,-10.533 20.733,-19.8 29,-27.8c-6.667,-2.133 -12.667,-3.866 -18,-5.2c-5.334,-1.333 -10.8,-2.4 -16.4,-3.2c-1.334,-0.266 -2.667,-0.466 -4,-0.6c-1.334,-0.133 -2.667,-0.2 -4,-0.2c-6.134,0 -11.334,1.067 -15.6,3.2c-4.267,2.134 -8.267,4.934 -12,8.4c-4.534,4 -8.934,8.467 -13.2,13.4c-4.267,4.934 -8.267,9.8 -12,14.6c-0.8,1.067 -2,2.6 -3.6,4.6c-1.6,2 -2.934,2.467 -4,1.4c-1.067,-1.066 -1.6,-2.133 -1.6,-3.2c-0,-1.066 0.4,-2.133 1.2,-3.2c5.866,-8 11.266,-15.4 16.2,-22.2c4.933,-6.8 8.6,-11.666 11,-14.6c5.066,-7.466 10.133,-12.466 15.2,-15c5.066,-2.533 10.133,-3.8 15.2,-3.8c4.533,0 9.2,0.6 14,1.8c4.8,1.2 9.733,2.467 14.8,3.8c4.8,1.067 9.933,2.2 15.4,3.4c5.466,1.2 10.6,2.334 15.4,3.4c2.133,-1.866 5.933,-4.266 11.4,-7.2c5.466,-2.933 10.066,-4.4 13.8,-4.4c3.733,0 5.6,1.867 5.6,5.6c-0,4.534 -2.067,8.6 -6.2,12.2c-4.134,3.6 -8.934,6.267 -14.4,8c-5.467,1.734 -10.067,2.2 -13.8,1.4c-9.067,7.734 -20,17 -32.8,27.8c-12.8,10.8 -24.667,21.134 -35.6,31c-1.6,1.067 -3.267,2.4 -5,4c-1.734,1.6 -3.667,3.334 -5.8,5.2c2.133,1.067 4.2,2 6.2,2.8c2,0.8 3.933,1.734 5.8,2.8c7.466,4.534 14.6,8.4 21.4,11.6c6.8,3.2 13.533,4.8 20.2,4.8c6.4,0 12.666,-1.733 18.8,-5.2c5.6,-3.2 12.533,-8.333 20.8,-15.4c8.266,-7.066 16.533,-14.866 24.8,-23.4c8.266,-8.533 14.933,-16.266 20,-23.2c0.8,-1.066 2.133,-1.6 4,-1.6c1.066,0 1.933,0.2 2.6,0.6c0.666,0.4 0.733,1.134 0.2,2.2c-2.134,3.734 -5.667,8.534 -10.6,14.4c-4.934,5.867 -10.6,12.067 -17,18.6c-6.4,6.534 -12.8,12.667 -19.2,18.4c-6.4,5.734 -12.134,10.467 -17.2,14.2c-4.8,3.467 -8.667,5.934 -11.6,7.4c-2.934,1.467 -5.467,2.467 -7.6,3Z" style="fill-rule:nonzero;"/><path d="M1105.73,789.318c-3.2,-0.8 -6,-1.6 -8.4,-2.4c-5.067,-2.666 -8.667,-5.666 -10.8,-9c-2.134,-3.333 -3.2,-6.866 -3.2,-10.6c-0,-6.133 2.066,-12.733 6.2,-19.8c4.133,-7.066 9.533,-14.333 16.2,-21.8c6.666,-8 15.133,-16.133 25.4,-24.4c10.266,-8.266 21,-16.2 32.2,-23.8c11.2,-7.6 21.066,-14.2 29.6,-19.8c4.533,-9.333 9.266,-19.333 14.2,-30c4.933,-10.666 9.666,-21 14.2,-31c4.533,-10 8.466,-19.133 11.8,-27.4c3.333,-8.266 5.8,-14.666 7.4,-19.2c-4.267,5.067 -9.2,11.4 -14.8,19c-5.6,7.6 -11.734,15.6 -18.4,24c-6.667,8.4 -13.534,16.334 -20.6,23.8c-7.067,7.467 -14.334,13.534 -21.8,18.2c-7.467,4.667 -14.8,7 -22,7c-10.667,0 -18.067,-2.733 -22.2,-8.2c-4.134,-5.466 -6.2,-11.933 -6.2,-19.4c-0,-5.333 0.733,-10.666 2.2,-16c1.466,-5.333 3.4,-10.266 5.8,-14.8c1.6,-3.2 4.133,-7.466 7.6,-12.8c3.466,-5.333 7.466,-10.8 12,-16.4c4.533,-5.6 9.133,-10.266 13.8,-14c4.666,-3.733 9.133,-5.6 13.4,-5.6c5.066,0 8.933,1.8 11.6,5.4c2.666,3.6 2.933,6.067 0.8,7.4c-4.267,2.934 -9.534,7.4 -15.8,13.4c-6.267,6 -12.467,12.867 -18.6,20.6c-1.6,2.134 -3.534,5.467 -5.8,10c-2.267,4.534 -4.334,9.4 -6.2,14.6c-1.867,5.2 -2.8,9.934 -2.8,14.2c-0,1.867 0.266,3.667 0.8,5.4c0.533,1.734 1.466,3 2.8,3.8c2.133,1.6 4.533,2.4 7.2,2.4c3.733,0 7.933,-1.2 12.6,-3.6c4.666,-2.4 9.133,-5.466 13.4,-9.2c14.933,-14.4 28.266,-29.466 40,-45.2c11.733,-15.733 24.133,-31.333 37.2,-46.8c0.8,-2.666 3.066,-4 6.8,-4c4.266,0 8.733,1.267 13.4,3.8c4.666,2.534 6.6,4.6 5.8,6.2c-2.4,5.334 -5.534,12.4 -9.4,21.2c-3.867,8.8 -8.067,18.267 -12.6,28.4c-4.534,10.134 -9.067,20.2 -13.6,30.2c-4.534,10 -8.667,19 -12.4,27c3.2,-1.6 8.933,-5.6 17.2,-12c8.266,-6.4 17.333,-14.2 27.2,-23.4c9.866,-9.2 18.8,-18.733 26.8,-28.6c1.6,-1.6 2.8,-2.4 3.6,-2.4c1.6,0 2.4,1.067 2.4,3.2c-0,1.867 -0.8,4 -2.4,6.4c-4,5.334 -9.534,11.6 -16.6,18.8c-7.067,7.2 -14.667,14.467 -22.8,21.8c-8.134,7.334 -16.067,14 -23.8,20c-7.734,6 -14.4,10.6 -20,13.8c-8.267,17.6 -16.267,34.2 -24,49.8c-7.734,15.6 -14.8,28.2 -21.2,37.8c-4.267,6.667 -9.467,13.467 -15.6,20.4c-6.134,6.934 -12.8,12.734 -20,17.4c-7.2,4.667 -14.8,7 -22.8,7c-1.067,0 -2.134,-0.066 -3.2,-0.2c-1.067,-0.133 -2.267,-0.333 -3.6,-0.6Zm1.2,-8.8c2.133,0 4.733,-0.666 7.8,-2c3.066,-1.333 6.333,-3.466 9.8,-6.4c10.133,-8.266 18.666,-17.933 25.6,-29c6.933,-11.066 13.133,-22.733 18.6,-35c5.466,-12.266 11,-24 16.6,-35.2c-10.4,7.734 -22.134,16.867 -35.2,27.4c-13.067,10.534 -24.934,21 -35.6,31.4c-6.4,6.4 -11.067,12.734 -14,19c-2.934,6.267 -4.4,11.8 -4.4,16.6c-0,8.8 3.6,13.2 10.8,13.2Z" style="fill-rule:nonzero;"/><path d="M1271.73,789.318c-3.2,-0.8 -6,-1.6 -8.4,-2.4c-5.067,-2.666 -8.667,-5.666 -10.8,-9c-2.134,-3.333 -3.2,-6.866 -3.2,-10.6c-0,-6.133 2.066,-12.733 6.2,-19.8c4.133,-7.066 9.533,-14.333 16.2,-21.8c6.666,-8 15.133,-16.133 25.4,-24.4c10.266,-8.266 21,-16.2 32.2,-23.8c11.2,-7.6 21.066,-14.2 29.6,-19.8c9.333,-18.933 17.6,-36.866 24.8,-53.8c7.2,-16.933 12.266,-29.933 15.2,-39c-5.6,6.134 -11.6,13 -18,20.6c-6.4,7.6 -11.067,13.134 -14,16.6c-5.067,5.334 -10.8,11.134 -17.2,17.4c-6.4,6.267 -13.134,11.6 -20.2,16c-7.067,4.4 -13.934,6.6 -20.6,6.6c-4.267,0 -8.8,-1.266 -13.6,-3.8c-4.8,-2.533 -8.667,-5.8 -11.6,-9.8c-4,-5.333 -6,-10.8 -6,-16.4c-0,-7.2 2.466,-14.666 7.4,-22.4c4.933,-7.733 11.333,-15.266 19.2,-22.6c7.866,-7.333 16.266,-14 25.2,-20c8.933,-6 17.466,-11.066 25.6,-15.2c8.133,-4.133 14.733,-6.866 19.8,-8.2c4.8,-1.6 10.666,-2.4 17.6,-2.4c3.2,0 7.066,0.534 11.6,1.6c4.533,1.067 8.6,2.734 12.2,5c3.6,2.267 5.4,5.534 5.4,9.8c-0,2.134 -1.067,2.8 -3.2,2c-1.867,-3.2 -4.6,-5.266 -8.2,-6.2c-3.6,-0.933 -7.267,-1.4 -11,-1.4c-10.4,0 -22.067,3.467 -35,10.4c-12.934,6.934 -24.467,15.067 -34.6,24.4c-3.2,2.667 -7.6,7.267 -13.2,13.8c-5.6,6.534 -10.6,13.667 -15,21.4c-4.4,7.734 -6.6,14.8 -6.6,21.2c-0,3.467 0.933,6.534 2.8,9.2c0.8,1.334 2.4,2 4.8,2c5.066,0 11.266,-2.266 18.6,-6.8c7.333,-4.533 15.133,-10.266 23.4,-17.2c8.266,-6.933 16.333,-14.333 24.2,-22.2c7.866,-7.866 14.866,-15.133 21,-21.8c6.133,-6.666 10.666,-11.733 13.6,-15.2c0.533,-1.333 1.466,-2.266 2.8,-2.8c1.333,-0.533 2.8,-0.8 4.4,-0.8c4.266,0 8.733,1.134 13.4,3.4c4.666,2.267 6.6,4.2 5.8,5.8c-5.067,10.934 -11,23.6 -17.8,38c-6.8,14.4 -13.934,29.467 -21.4,45.2c3.466,-1.866 9.2,-6 17.2,-12.4c8,-6.4 16.8,-14.066 26.4,-23c9.6,-8.933 18.533,-18.2 26.8,-27.8c3.2,-3.466 5.6,-5.2 7.2,-5.2c1.6,0 2,1.4 1.2,4.2c-0.8,2.8 -2.934,6.334 -6.4,10.6c-4.267,5.067 -10.134,11.134 -17.6,18.2c-7.467,7.067 -15.334,14.267 -23.6,21.6c-8.267,7.334 -15.934,13.867 -23,19.6c-7.067,5.734 -12.6,9.667 -16.6,11.8c-8.267,17.6 -16.267,34.2 -24,49.8c-7.734,15.6 -14.8,28.2 -21.2,37.8c-4.267,6.667 -9.467,13.467 -15.6,20.4c-6.134,6.934 -12.8,12.734 -20,17.4c-7.2,4.667 -14.8,7 -22.8,7c-1.067,0 -2.134,-0.066 -3.2,-0.2c-1.067,-0.133 -2.267,-0.333 -3.6,-0.6Zm-4,-10.4c1.6,1.067 3.933,1.067 7,0c3.066,-1.066 7,-3.466 11.8,-7.2c10.4,-8.266 19.333,-17.933 26.8,-29c7.466,-11.066 14.266,-22.666 20.4,-34.8c6.133,-12.133 12,-23.8 17.6,-35c-10.4,7.734 -22.134,16.867 -35.2,27.4c-13.067,10.534 -24.934,21 -35.6,31.4c-5.334,5.334 -9.8,11.267 -13.4,17.8c-3.6,6.534 -5.4,12.467 -5.4,17.8c-0,5.6 2,9.467 6,11.6Z" style="fill-rule:nonzero;"/><path d="M1485.73,646.918c-7.467,0 -14,-1.733 -19.6,-5.2c-9.334,-5.6 -14,-15.733 -14,-30.4c-0,-6.133 1.066,-13.2 3.2,-21.2c1.866,-6.666 5.2,-13.933 10,-21.8c4.8,-7.866 10.466,-15.4 17,-22.6c6.533,-7.2 13.666,-13.066 21.4,-17.6c7.733,-4.533 15.466,-6.8 23.2,-6.8c3.2,0 6,0.4 8.4,1.2c3.2,1.067 5.933,3 8.2,5.8c2.266,2.8 3.4,6.334 3.4,10.6c-0,4.534 -1.134,7.067 -3.4,7.6c-2.267,0.534 -3.4,0 -3.4,-1.6c-0,-0.533 0.066,-1.066 0.2,-1.6c0.133,-0.533 0.2,-0.933 0.2,-1.2c-0,-2.133 -0.6,-4.066 -1.8,-5.8c-1.2,-1.733 -3.4,-2.6 -6.6,-2.6c-4.267,0 -9.534,2.267 -15.8,6.8c-6.267,4.534 -12.667,10.6 -19.2,18.2c-6.534,7.6 -12.267,15.934 -17.2,25c-4.934,9.067 -8.2,18.134 -9.8,27.2c-0.267,1.334 -0.467,2.6 -0.6,3.8c-0.134,1.2 -0.2,2.467 -0.2,3.8c-0,6.134 1.4,11.267 4.2,15.4c2.8,4.134 7.266,6.2 13.4,6.2c7.466,0 14.666,-2.866 21.6,-8.6c6.933,-5.733 13.133,-12.6 18.6,-20.6c5.466,-8 9.533,-15.066 12.2,-21.2c2.133,-4.8 3.6,-8.933 4.4,-12.4c0.8,-3.466 1.2,-6.4 1.2,-8.8c-0,-2.133 -0.2,-4 -0.6,-5.6c-0.4,-1.6 -0.867,-2.933 -1.4,-4c-0.534,-1.6 -0.8,-2.8 -0.8,-3.6c-0,-2.133 0.866,-3.866 2.6,-5.2c1.733,-1.333 3.533,-2 5.4,-2c1.6,0 3.333,0.534 5.2,1.6c2.133,0.534 5.066,0.934 8.8,1.2c3.733,0.267 7.733,0.4 12,0.4c4.533,0 9.133,-0.133 13.8,-0.4c4.666,-0.266 8.733,-0.8 12.2,-1.6c0.533,-0.266 1.333,-0.4 2.4,-0.4c1.866,0 2.8,0.534 2.8,1.6c-0,1.067 -0.934,2 -2.8,2.8c-9.334,4.267 -17.667,6.534 -25,6.8c-7.334,0.267 -13.667,0.4 -19,0.4c0.533,6.667 -0.934,13.8 -4.4,21.4c-3.467,7.6 -7.067,14.334 -10.8,20.2c-4.534,6.667 -9.734,13.467 -15.6,20.4c-5.867,6.934 -12.4,12.734 -19.6,17.4c-7.2,4.667 -15.334,7 -24.4,7Zm41.2,-150c-2.134,0 -3.2,-0.533 -3.2,-1.6c-0,-1.333 2,-3.2 6,-5.6c2.666,-1.6 6.866,-4.4 12.6,-8.4c5.733,-4 12.2,-8.8 19.4,-14.4c3.733,-3.2 6.8,-5.733 9.2,-7.6c2.4,-1.866 4.133,-2.8 5.2,-2.8l3,0c1.2,0 2.466,0.667 3.8,2c2.933,2.134 4.4,4 4.4,5.6c-0,1.067 -0.267,2.067 -0.8,3c-0.534,0.934 -1.2,1.934 -2,3c-1.867,1.6 -5.6,3.867 -11.2,6.8c-5.6,2.934 -11.734,5.934 -18.4,9c-6.667,3.067 -12.667,5.667 -18,7.8c-5.334,2.134 -8.667,3.2 -10,3.2Z" style="fill-rule:nonzero;"/><path d="M1700.53,686.118c-6.934,-1.066 -11.867,-4.4 -14.8,-10c-2.934,-5.6 -4.4,-12.533 -4.4,-20.8c-0,-9.866 1.4,-20.533 4.2,-32c2.8,-11.466 6.066,-22.266 9.8,-32.4c3.733,-10.133 6.666,-17.866 8.8,-23.2c-6.134,7.2 -13.134,15.067 -21,23.6c-7.867,8.534 -16.067,16.667 -24.6,24.4c-8.534,7.734 -16.734,14.067 -24.6,19c-7.867,4.934 -14.734,7.4 -20.6,7.4c-4.267,0 -8.8,-1.266 -13.6,-3.8c-4.8,-2.533 -8.667,-5.8 -11.6,-9.8c-4,-5.333 -6,-10.8 -6,-16.4c-0,-7.2 2.466,-14.666 7.4,-22.4c4.933,-7.733 11.333,-15.266 19.2,-22.6c7.866,-7.333 16.266,-14 25.2,-20c8.933,-6 17.466,-11.066 25.6,-15.2c8.133,-4.133 14.733,-6.866 19.8,-8.2c2.666,-0.533 5.466,-1.066 8.4,-1.6c2.933,-0.533 6,-0.8 9.2,-0.8c4,0 8,0.467 12,1.4c4,0.934 7.333,2.467 10,4.6l1.6,1.2c6.4,-14.666 13.466,-29.533 21.2,-44.6c7.733,-15.066 16,-28.866 24.8,-41.4c8.8,-12.533 18.133,-22.6 28,-30.2c9.866,-7.6 20.133,-11.4 30.8,-11.4c1.333,0 2.666,0.067 4,0.2c1.333,0.134 2.533,0.334 3.6,0.6c6.666,1.334 11.4,3.667 14.2,7c2.8,3.334 4.2,7.267 4.2,11.8c-0,3.2 -0.6,6.6 -1.8,10.2c-1.2,3.6 -2.867,7.134 -5,10.6c-5.867,10.4 -13.534,20.667 -23,30.8c-9.467,10.134 -19.8,19.934 -31,29.4c-11.2,9.467 -22.334,18.6 -33.4,27.4c-11.067,8.8 -21.134,17.067 -30.2,24.8c-4,9.334 -8,20.267 -12,32.8c-4,12.534 -7.334,23.2 -10,32c-1.6,6.4 -2.867,12.4 -3.8,18c-0.934,5.6 -1.4,10.8 -1.4,15.6c-0,8.8 1.6,16 4.8,21.6c2.666,4.267 6,6.4 10,6.4c2.933,0 5.6,-1.066 8,-3.2c1.066,-0.533 2.066,-1.2 3,-2c0.933,-0.8 2.066,-1.6 3.4,-2.4c1.6,-0.8 2.933,-1.2 4,-1.2c1.866,0 2,1.467 0.4,4.4c-0.8,0.8 -1.734,1.8 -2.8,3c-1.067,1.2 -2.267,2.467 -3.6,3.8c-1.867,1.334 -4.667,2.4 -8.4,3.2c-3.734,0.8 -7.467,1.2 -11.2,1.2c-1.067,0 -2.2,-0.066 -3.4,-0.2c-1.2,-0.133 -2.334,-0.333 -3.4,-0.6Zm38.4,-155.2c10.666,-7.2 22.266,-16.2 34.8,-27c12.533,-10.8 24.266,-22.4 35.2,-34.8c10.933,-12.4 19.333,-24.2 25.2,-35.4c3.466,-6.4 5.2,-11.466 5.2,-15.2c-0,-4.533 -2,-6.8 -6,-6.8c-3.734,0 -8.667,2.134 -14.8,6.4c-17.867,13.867 -32.934,30.334 -45.2,49.4c-12.267,19.067 -23.734,40.2 -34.4,63.4Zm-136.8,101.6c1.333,1.6 3.066,2.4 5.2,2.4c4,0 8.733,-1.733 14.2,-5.2c5.466,-3.466 9.133,-6.133 11,-8c13.6,-10.933 27.266,-22.733 41,-35.4c13.733,-12.666 26.6,-25.4 38.6,-38.2c1.066,-2.4 2,-4.733 2.8,-7c0.8,-2.266 1.733,-4.466 2.8,-6.6c-4,-1.6 -8.667,-2.4 -14,-2.4c-10.667,0 -22.4,3.467 -35.2,10.4c-12.8,6.934 -24.267,15.067 -34.4,24.4c-3.2,2.667 -7.534,7.267 -13,13.8c-5.467,6.534 -10.467,13.667 -15,21.4c-4.534,7.734 -6.8,14.8 -6.8,21.2c-0,3.467 0.933,6.534 2.8,9.2Z" style="fill-rule:nonzero;"/></g></g></svg>